<?xml version="1.0" encoding="utf-8"?>
<!-- Generator: Adobe Illustrator 21.0.0, SVG Export Plug-In . SVG Version: 6.00 Build 0)  -->
<svg version="1.1" id="Layer_1" xmlns="http://www.w3.org/2000/svg" xmlns:xlink="http://www.w3.org/1999/xlink" x="0px" y="0px"
	 viewBox="0 0 512 512" style="enable-background:new 0 0 512 512;" xml:space="preserve">
<style type="text/css">
	.st0{fill:#00000008;}
</style>
<g id="Layer_2">
	<g>
		<g>
			<path class="st0" d="M439.6,397.7h-37.7c8.3-18,13.3-37.2,14.5-57.2c0.2-2.4-1.7-4.5-4.1-4.7s-4.5,1.7-4.7,4.1
				c-1.2,18.6-5.7,36.6-13.4,53.5V355c0-2.4-1.9-4.4-4.4-4.4H373c-2.4,0-4.4,1.9-4.4,4.4v25.6h-4.4V223.5
				c6.8,6.9,12.9,14.3,18.2,22.3c0.8,1.3,2.3,1.9,3.6,1.9c0.8,0,1.7-0.3,2.4-0.7c2-1.3,2.6-4,1.2-6.1c-7.3-10.9-15.8-20.8-25.4-29.6
				v-75.1h4.4c2.4,0,4.4-1.9,4.4-4.4s-1.9-4.4-4.4-4.4h-8.7l0,0h-2.2v-17.9c0-2.4-1.9-4.4-4.4-4.4h-9.7V87.4c0-2.4-1.9-4.4-4.4-4.4
				h-5.6V60.9c0-2.4-1.9-4.4-4.4-4.4s-4.4,1.9-4.4,4.4V83h-5.6c-2.4,0-4.4,1.9-4.4,4.4v17.9h-9.7c-2.4,0-4.4,1.9-4.4,4.4v17.9h-2.2
				l0,0H290c-2.4,0-4.4,1.9-4.4,4.4s1.9,4.4,4.4,4.4h4.4V174c-12.5-3.1-25.3-4.6-38.3-4.6s-25.8,1.5-38.3,4.6v-37.7h4.4
				c2.4,0,4.4-1.9,4.4-4.4s-1.9-4.4-4.4-4.4h-8.8l0,0h-2.2v-17.9c0-2.4-1.9-4.4-4.4-4.4h-9.7V87.4c0-2.4-1.9-4.4-4.4-4.4h-5.6V34.7
				c0-2.4-1.9-4.4-4.4-4.4s-4.4,1.9-4.4,4.4v48.2H173c-2.4,0-4.4,1.9-4.4,4.4v17.9h-9.7c-2.4,0-4.4,1.9-4.4,4.4v17.9H152l0,0h-8.8
				c-2.4,0-4.4,1.9-4.4,4.4s1.9,4.4,4.4,4.4h4.4v75.1c-9.6,8.8-18.2,18.7-25.4,29.6c-1.3,2-0.8,4.7,1.2,6.1c0.8,0.5,1.6,0.7,2.4,0.7
				c1.4,0,2.8-0.7,3.6-1.9c5.3-8,11.4-15.5,18.2-22.3v157.1h-4.4v-54.5c0-2.4-1.9-4.4-4.4-4.4H122c-2.4,0-4.4,1.9-4.4,4.4v67.5
				c-7.7-16.8-12.2-34.8-13.4-53.5c-0.2-2.4-2.3-4.2-4.7-4.1c-2.4,0.2-4.2,2.3-4.1,4.7c1.3,20,6.1,39.2,14.5,57.2H72.3
				c-2.4,0-4.4,1.9-4.4,4.4c0,2.4,1.9,4.4,4.4,4.4H117l0,0l0,0h5c2.4,0,4.4-1.9,4.4-4.4V398v-67.4h8.1V385v12.8v4.4
				c0,2.4,1.9,4.4,4.4,4.4h13.3c2.4,0,4.4-1.9,4.4-4.4V136.3h11V282c0,2.4,1.9,4.4,4.4,4.4c2.4,0,4.4-1.9,4.4-4.4V136.3h13.1v63.9
				c0,2.4,1.9,4.4,4.4,4.4c2.4,0,4.4-1.9,4.4-4.4v-63.9h11v125.9c0,2.4,1.9,4.4,4.4,4.4h28.5l0,0h24.9l0,0h27.5v13.1h-80.9
				c-2.4,0-4.4,1.9-4.4,4.4v118.1c0,2.4,1.9,4.4,4.4,4.4H226c2.4,0,4.4-1.9,4.4-4.4v-4.4v-57.7h8.1v25v32.7v4.4
				c0,2.4,1.9,4.4,4.4,4.4s4.4-1.9,4.4-4.4v-4.4v-28.3h17.5v28.3v4.4c0,2.4,1.9,4.4,4.4,4.4c2.4,0,4.4-1.9,4.4-4.4v-4.4v-32.7v-47.2
				h8.1v79.8v4.4c0,2.4,1.9,4.4,4.4,4.4h12.7c2.4,0,4.4-1.9,4.4-4.4V262.2c0-2.4-1.9-4.4-4.4-4.4h-31.9l0,0H242l0,0h-24.2v-13.1h81
				c2.4,0,4.4-1.9,4.4-4.4v-104h11v63.9c0,2.4,1.9,4.4,4.4,4.4s4.4-1.9,4.4-4.4v-63.9h13.1V282c0,2.4,1.9,4.4,4.4,4.4
				s4.4-1.9,4.4-4.4V136.3h11v265.8c0,2.4,1.9,4.4,4.4,4.4H373c2.4,0,4.4-1.9,4.4-4.4v-4.4v-6.2v-6.6v-25.6h8.2v38.4l0,0v4.4
				c0,2.4,1.9,4.4,4.4,4.4h5l0,0l0,0h44.7c2.4,0,4.4-1.9,4.4-4.4C444,399.7,442.1,397.7,439.6,397.7z M294.3,397.7h-3.9v-84.2
				c0-2.4-1.9-4.4-4.4-4.4h-16.8c-2.4,0-4.4,1.9-4.4,4.4v47.2h-17.5v-24.9c0-2.4-1.9-4.4-4.4-4.4h-16.8c-2.4,0-4.4,1.9-4.4,4.4v62
				h-3.9V288.5h76.6L294.3,397.7L294.3,397.7z M323.7,91.6h11.2v13.6h-11.2V91.6z M309.6,114H349v13.6h-39.4V114z M177.1,91.6h11.2
				v13.6h-11.2V91.6z M163,114h39.4v13.6H163V114z M143.3,397.7v-8.4h4.4v8.4H143.3z M217.7,235.9V183c12.4-3.2,25.3-4.9,38.3-4.9
				s25.9,1.6,38.3,4.9v52.9H217.7z M364.3,397.7v-8.4h4.4v2.2v6.2L364.3,397.7L364.3,397.7z"/>
			<path class="st0" d="M171.7,309.1c-2.4,0-4.4,1.9-4.4,4.4v37.2c0,2.4,1.9,4.4,4.4,4.4c2.4,0,4.4-1.9,4.4-4.4v-37.2
				C176.1,311.1,174.2,309.1,171.7,309.1z"/>
			<path class="st0" d="M193.6,209.8c-2.4,0-4.4,1.9-4.4,4.4v42.9c0,2.4,1.9,4.4,4.4,4.4c2.4,0,4.4-1.9,4.4-4.4v-42.9
				C198,211.8,196,209.8,193.6,209.8z"/>
			<path class="st0" d="M340.3,309.1c-2.4,0-4.4,1.9-4.4,4.4v37.2c0,2.4,1.9,4.4,4.4,4.4s4.4-1.9,4.4-4.4v-37.2
				C344.6,311.1,342.7,309.1,340.3,309.1z"/>
			<path class="st0" d="M318.4,209.8c-2.4,0-4.4,1.9-4.4,4.4v42.9c0,2.4,1.9,4.4,4.4,4.4s4.4-1.9,4.4-4.4v-42.9
				C322.8,211.8,320.8,209.8,318.4,209.8z"/>
			<path class="st0" d="M99.9,319.2c0.2,0,0.3,0,0.4,0c2.2,0,4.1-1.7,4.4-3.9c1.7-17.2,6.2-33.8,13.5-49.4c1-2.2,0.1-4.8-2.1-5.8
				s-4.8-0.1-5.8,2.1c-7.7,16.5-12.5,34-14.2,52.2C95.7,316.8,97.5,319,99.9,319.2z"/>
			<path class="st0" d="M407.3,315.3c0.2,2.3,2.1,3.9,4.4,3.9c0.2,0,0.3,0,0.4,0c2.4-0.3,4.1-2.4,3.9-4.8
				c-1.7-18.2-6.6-35.7-14.2-52.2c-1-2.2-3.6-3.1-5.8-2.1c-2.2,1-3.1,3.6-2.1,5.8C401.1,281.5,405.7,298.1,407.3,315.3z"/>
		</g>
		<g>
			<path class="st0" d="M113.7,427.8c6.1,0,10.9,2.7,14.7,7.7c0.5,0.5,0.9,0.5,1.5,0.1l4.5-3.4c0.6-0.5,0.6-0.9,0.2-1.5
				c-4.8-6.8-12.6-10.5-20.9-10.5c-14.4,0-25.3,10.7-25.3,25.2c0,14.6,11,25.2,25.3,25.2c5,0,9.5-1.5,13.5-4.9l0.7,2.9
				c0.2,0.8,0.7,1.3,1.5,1.3h3.9c0.8,0,1.2-0.5,1.2-1.3v-24.4c0-0.8-0.4-1.2-1.2-1.2h-5.7c-0.9,0-1.3,0.4-1.3,1.2v13.4
				c-3.5,3.6-7.7,5.4-12.7,5.4c-10,0-17-7.5-17-17.5C96.6,435.3,103.7,427.8,113.7,427.8z"/>
			<path class="st0" d="M198.1,420.9h-7.9c-0.9,0-1.5,0.5-2,1.3l-8.9,19.6l-6.8,16.6H172l-6.1-14.1l-10-22.3
				c-0.3-0.6-0.9-1.2-1.5-1.2H146c-0.8,0-1.3,0.5-1.3,1.3v46.4c0,0.8,0.5,1.3,1.3,1.3h5.7c0.7,0,1.1-0.5,1.1-1.3V447l-0.5-14.2h0.5
				l7.6,18.2l8,17.5c0.5,0.8,1,1.3,1.8,1.3h3.6c0.8,0,1.3-0.5,1.8-1.3l8.1-17.6l7.4-18.1h0.5l-0.5,14.2v21.5c0,0.8,0.5,1.3,1.3,1.3
				h5.7c0.8,0,1.2-0.5,1.2-1.3v-46.4C199.3,421.3,198.9,420.9,198.1,420.9z"/>
			<path class="st0" d="M233.5,420.1c-14.2,0-25.2,10.6-25.2,25.2c0,14.5,11.1,25.1,25.2,25.1s25.2-10.6,25.2-25.1
				C258.8,430.7,247.7,420.1,233.5,420.1z M233.5,462.9c-10.1,0-17-7.5-17-17.5c0-10.1,6.9-17.6,17-17.6s17,7.5,17,17.6
				C250.5,455.4,243.6,462.9,233.5,462.9z"/>
			<path class="st0" d="M287.4,420.9H269c-0.8,0-1.3,0.5-1.3,1.3v46.4c0,0.8,0.5,1.3,1.3,1.3h18.4c14.2,0,25.2-10,25.2-24.5
				C312.7,430.9,301.6,420.9,287.4,420.9z M287.4,462.1h-11.5v-33.6h11.5c9.8,0,16.9,7,16.9,16.8
				C304.3,455.2,297.2,462.1,287.4,462.1z"/>
			<path class="st0" d="M362.8,420.9h-3.4c-0.8,0-1.2,0.4-1.2,1.2v19.6h-30.6V422c0-0.8-0.5-1.2-1.2-1.2h-3.5
				c-0.8,0-1.2,0.4-1.2,1.2v46.6c0,0.8,0.4,1.2,1.2,1.2h3.5c0.8,0,1.2-0.4,1.2-1.2V447h30.6v21.7c0,0.8,0.5,1.2,1.2,1.2h3.4
				c0.8,0,1.3-0.4,1.3-1.2V422C364,421.2,363.6,420.9,362.8,420.9z"/>
			<path class="st0" d="M417.1,462.6c4-4.4,6.6-10.3,6.6-17.3c0-14.6-11-25.2-25.3-25.2c-14.2,0-25.2,10.6-25.2,25.2
				c0,14.5,11.1,25.1,25.2,25.1c5.5,0,10.4-1.5,14.5-4.3l4.7,4.9c0.5,0.5,1.2,0.5,1.7,0l2.3-2.2c0.6-0.5,0.6-1.1,0.1-1.7
				L417.1,462.6z M406.8,451.9c-0.5-0.5-1.2-0.5-1.6-0.1l-2.4,2.3c-0.6,0.5-0.6,1.2-0.1,1.7l6,6.3c-3,1.9-6.6,3-10.5,3
				c-11.2,0-19.3-8.4-19.3-19.7c0-11.2,8.1-19.9,19.3-19.9c11.2,0,19.3,8.6,19.3,19.9c0,5.1-1.7,9.6-4.6,13.1L406.8,451.9z"/>
		</g>
	</g>
</g>
</svg>
