<svg width="64" height="64"  version="1.1" id="Layer_1" xmlns="http://www.w3.org/2000/svg" xmlns:xlink="http://www.w3.org/1999/xlink" x="0px" y="0px"
	 viewBox="0 0 734.3 734.7" style="enable-background:new 0 0 734.3 734.7;" xml:space="preserve">
<style type="text/css">
	.st0{fill:#DBDBDB;}
</style>
<title>Asset 1</title>
<path class="st0" d="M725.9,717.5h-73.6c16.3-35.1,26-73,28.4-111.7c0.2-4.7-3.5-8.7-8.2-8.9c-4.6-0.2-8.5,3.3-8.9,7.8
	c-2.2,36.1-11.1,71.5-26.2,104.4V634c0-4.7-3.9-8.6-8.6-8.6h-32.9c-4.7,0-8.6,3.9-8.6,8.6v50h-8.5V377.2
	c13.2,13.4,25.1,28,35.5,43.6c1.6,2.4,4.2,3.8,7.1,3.8c1.7,0,3.3-0.5,4.7-1.4c3.9-2.6,5-7.9,2.4-11.9
	c-14.2-21.2-30.9-40.6-49.7-57.8V206.9h8.5c4.7,0,8.5-3.8,8.5-8.5s-3.8-8.5-8.5-8.5H566v-35c0-4.7-3.8-8.5-8.5-8.5c0,0,0,0,0,0h-19
	v-35c0-4.7-3.8-8.5-8.5-8.5c0,0,0,0,0,0h-10.9V59.6c0-4.7-3.8-8.5-8.5-8.5c-4.7,0-8.5,3.8-8.5,8.5v43.3h-10.9
	c-4.7,0-8.5,3.8-8.5,8.5c0,0,0,0,0,0v35h-19c-4.7,0-8.5,3.8-8.5,8.5c0,0,0,0,0,0v35h-21.4c-4.7,0-8.5,3.8-8.5,8.5s3.8,8.5,8.5,8.5
	l0,0h8.6v73.6c-49.1-12-100.5-12-149.6,0v-73.6h8.6c4.7,0,8.5-3.8,8.5-8.5s-3.8-8.5-8.5-8.5H280v-35c0-4.7-3.8-8.5-8.5-8.5
	c0,0,0,0,0,0h-19v-35c0-4.7-3.8-8.5-8.5-8.5c0,0,0,0,0,0h-10.9V8.5c0-4.7-3.8-8.5-8.5-8.5s-8.5,3.8-8.5,8.5v94.1h-10.9
	c-4.7,0-8.5,3.8-8.5,8.5c0,0,0,0,0,0v35h-19c-4.7,0-8.5,3.8-8.5,8.5c0,0,0,0,0,0v35h-22c-4.7,0-8.5,3.8-8.5,8.5s3.8,8.5,8.5,8.5h8.5
	v146.7c-18.8,17.2-35.5,36.6-49.7,57.8c-2.6,3.9-1.6,9.3,2.4,11.9c0,0,0,0,0,0c3.9,2.6,9.2,1.5,11.8-2.4
	c10.4-15.6,22.3-30.2,35.5-43.6v306.8h-8.5V577.3c0-4.7-3.8-8.5-8.5-8.5c0,0-0.1,0-0.1,0h-32.9c-4.7,0-8.6,3.8-8.6,8.5v131.8
	c-15.1-32.9-24-68.3-26.2-104.4c-0.4-4.7-4.6-8.2-9.3-7.8c-4.6,0.4-8,4.3-7.8,8.9c2.4,38.7,12,76.6,28.4,111.7H8.5
	c-4.7,0-8.5,3.8-8.5,8.6c0,4.7,3.8,8.5,8.5,8.5h97c4.7,0,8.5-3.8,8.5-8.5c0,0,0,0,0,0V585.9h15.8v140.3c0,4.7,3.8,8.5,8.5,8.5
	c0,0,0,0,0,0h26c4.7,0,8.5-3.8,8.5-8.5c0,0,0,0,0,0V206.9h21.4v284.6c0,4.7,3.8,8.5,8.5,8.5s8.5-3.8,8.5-8.5V206.9h25.6v124.8
	c0,4.7,3.8,8.5,8.5,8.5s8.5-3.8,8.5-8.5V206.9h21.4v245.9c0,4.7,3.8,8.5,8.5,8.5c0,0,0.1,0,0.1,0h158.1v25.6h-158
	c-4.7,0-8.6,3.9-8.6,8.6l0,0v230.6c0,4.7,3.8,8.5,8.5,8.5c0,0,0.1,0,0.1,0h24.8c4.7,0,8.5-3.8,8.5-8.5c0,0,0,0,0,0V604.9H333v121.3
	c0,4.7,3.8,8.5,8.5,8.5c0,0,0,0,0,0c4.7,0,8.6-3.8,8.6-8.5v-63.9h34.2v63.9c0,4.7,3.8,8.5,8.6,8.5c4.7,0,8.5-3.8,8.5-8.5V561.6h15.9
	V726c0,4.7,3.8,8.6,8.5,8.6h24.8c4.7,0,8.6-3.8,8.6-8.5V452.8c0-4.7-3.9-8.6-8.6-8.6l0,0H292.5v-25.6h158.2c4.7,0,8.6-3.9,8.6-8.6
	l0,0V206.9h21.4v124.8c0,4.7,3.8,8.5,8.5,8.5s8.5-3.8,8.5-8.5V206.9h25.6v284.6c0,4.7,3.8,8.5,8.5,8.5s8.5-3.8,8.5-8.5V206.9h21.4
	v519.2c0,4.7,3.8,8.5,8.5,8.5c0,0,0,0,0,0h25.6c4.7,0,8.5-3.8,8.5-8.5c0,0,0,0,0,0v-83.6h16v75l0,0v8.6c0,4.7,3.8,8.5,8.5,8.5
	c0,0,0,0,0,0h97c4.7,0,8.5-3.8,8.5-8.5c0,0,0,0,0,0c0.2-4.6-3.3-8.4-7.9-8.6C726.2,717.5,726.1,717.5,725.9,717.5z M442.1,717.5
	h-7.7V553c0-4.7-3.9-8.6-8.6-8.6h-32.9c-4.7,0-8.6,3.9-8.6,8.6v92.1h-34.2v-48.7c0-4.7-3.8-8.5-8.5-8.5c0,0-0.1,0-0.1,0h-32.9
	c-4.7,0-8.6,3.8-8.6,8.5v121.1h-7.7V504.1H442v213.4H442.1z M499.6,119.7h21.8v26.5h-21.8L499.6,119.7z M472,163.3h76.9v26.5H472
	V163.3z M213.2,119.7H235v26.5h-21.8V119.7z M185.6,163.3h76.9v26.5h-76.9L185.6,163.3z M147.2,717.5v-16.4h8.5v16.4H147.2z
	 M292.5,401.5V298.1c49.1-12.7,100.5-12.7,149.6,0v103.4H292.5z M578.9,717.5v-16.4h8.5v16.4H578.9z"/>
<path class="st0" d="M202.7,544.5c-4.7,0-8.5,3.8-8.5,8.5c0,0,0,0,0,0v72.7c0,4.7,3.8,8.5,8.5,8.5s8.5-3.8,8.5-8.5V553
	c0.1-4.6-3.6-8.4-8.2-8.5C202.9,544.5,202.8,544.5,202.7,544.5z"/>
<path class="st0" d="M245.5,350.5c-4.7,0-8.5,3.8-8.5,8.5c0,0,0,0,0,0v83.8c0,4.7,3.8,8.5,8.5,8.5s8.5-3.8,8.5-8.5V359
	C254,354.3,250.2,350.5,245.5,350.5C245.5,350.5,245.5,350.5,245.5,350.5z"/>
<path class="st0" d="M531.9,544.5c-4.7,0-8.5,3.8-8.5,8.5c0,0,0,0,0,0v72.7c0,4.7,3.8,8.5,8.5,8.5s8.5-3.8,8.5-8.5V553
	C540.4,548.3,536.6,544.5,531.9,544.5C531.9,544.5,531.9,544.5,531.9,544.5z"/>
<path class="st0" d="M489.1,350.5c-4.7,0-8.5,3.8-8.5,8.5c0,0,0,0,0,0v83.8c0,4.7,3.8,8.5,8.5,8.5s8.5-3.8,8.5-8.5V359
	c0.1-4.6-3.6-8.4-8.2-8.5C489.3,350.5,489.2,350.5,489.1,350.5z"/>
<path class="st0" d="M62.4,564.2h0.8c4.4,0,8.1-3.3,8.5-7.7c3.2-33.4,12.1-66,26.3-96.4c2.1-4.2,0.4-9.4-3.8-11.5
	c-4.2-2.1-9.4-0.4-11.5,3.8c-0.1,0.1-0.1,0.3-0.2,0.4c-15,32.2-24.4,66.7-27.8,102C54.3,559.5,57.7,563.7,62.4,564.2z"/>
<path class="st0" d="M662.8,556.5c0.4,4.4,4.1,7.7,8.5,7.7h0.8c4.7-0.5,8.1-4.6,7.7-9.3c-3.4-35.3-12.8-69.8-27.8-102
	c-1.9-4.3-6.9-6.3-11.3-4.4c-4.3,1.9-6.3,6.9-4.4,11.3c0.1,0.1,0.1,0.3,0.2,0.4C650.7,490.5,659.6,523.1,662.8,556.5z"/>
</svg>
