<?xml version="1.0" encoding="utf-8"?>
<!-- Generator: Adobe Illustrator 23.0.3, SVG Export Plug-In . SVG Version: 6.00 Build 0)  -->
<svg version="1.1" id="Layer_1" xmlns="http://www.w3.org/2000/svg" xmlns:xlink="http://www.w3.org/1999/xlink" x="0px" y="0px"
	 viewBox="0 0 238.8 36.5" style="enable-background:new 0 0 238.8 36.5;" xml:space="preserve">
<style type="text/css">
	.st0{fill:#E5E5E5;}
</style>
<title>Asset 1</title>
<path class="st0" d="M28,16.2c-0.6,0-1,0.3-1,0.8v9.5c-2.3,2.5-5.6,3.9-9,3.8c-7.1,0-12.1-5.4-12.1-12.5S10.9,5.5,18,5.5
	c4.4,0,7.7,1.9,10.5,5.5c0.3,0.4,0.6,0.4,1.1,0.1l3.2-2.4c0.3-0.2,0.5-0.6,0.3-0.9c0-0.1-0.1-0.1-0.1-0.2C29.6,2.7,24-0.1,18,0
	C7.8,0,0,7.6,0,17.9s7.8,18,18,18c3.5,0,6.9-1.2,9.6-3.5l0.5,2c0.1,0.5,0.5,0.9,1.1,0.9h2.8c0.6,0,0.8-0.3,0.8-1V17
	c0-0.6-0.3-0.8-0.8-0.8L28,16.2z"/>
<path class="st0" d="M72.5,0.5c-0.6,0-1.2,0.3-1.4,0.9l-6.3,14l-4.8,11.8h-0.3l-4.3-10L48.1,1.4c-0.2-0.5-0.6-0.8-1.1-0.8h-6
	c-0.4,0-0.8,0.3-0.9,0.7c0,0.1,0,0.1,0,0.2v33.1c-0.1,0.4,0.3,0.8,0.7,0.9c0.1,0,0.1,0,0.2,0h4c0.5,0,0.8-0.3,0.8-0.9V19.2L45.5,9.1
	h0.3L51.3,22L57,34.5c0.2,0.5,0.7,0.9,1.3,0.9h2.6c0.6,0,1.1-0.4,1.3-0.9L67.9,22l5.3-12.9h0.3l-0.3,10.1v15.3
	c-0.1,0.4,0.3,0.8,0.7,0.9c0.1,0,0.1,0,0.2,0h4.1c0.6,0,0.8-0.3,0.8-0.9V1.4c0-0.6-0.3-0.9-0.8-0.9H72.5z"/>
<path class="st0" d="M103.4,5.4c7.2,0,12.1,5.3,12.1,12.5s-4.9,12.5-12.1,12.5S91.3,25.1,91.3,18S96.2,5.4,103.4,5.4z M85.4,18
	c0,9.9,8.1,18,18,18s18-8.1,18-18s-8.1-18-18-18S85.4,8.1,85.4,18z"/>
<path class="st0" d="M133.6,6h8.2c6.4-0.2,11.8,4.8,12,11.1c0,0.3,0,0.6,0,0.9c0,7-5.1,12-12,12h-8.2V6z M128.7,0.5
	c-0.4,0-0.8,0.3-0.9,0.7c0,0.1,0,0.1,0,0.2v33.1c-0.1,0.4,0.3,0.8,0.7,0.9c0.1,0,0.1,0,0.2,0h13.1c10.1,0,18-7.1,18-17.5
	s-7.9-17.4-18-17.4H128.7z"/>
<path class="st0" d="M167,0.5c-0.6,0-0.8,0.3-0.8,0.8v33.2c0,0.6,0.3,0.8,0.8,0.8h2.5c0.6,0,0.9-0.3,0.9-0.8V19.1h21.8v15.4
	c0,0.6,0.3,0.8,0.9,0.8h2.4c0.6,0,0.9-0.3,0.9-0.8V1.4c0-0.6-0.3-0.8-0.9-0.8H193c-0.6,0-0.9,0.3-0.9,0.8v14h-21.7v-14
	c0-0.6-0.3-0.8-0.9-0.8L167,0.5z"/>
<path class="st0" d="M202.8,18c-0.2,9.7,7.5,17.7,17.2,17.9c0.3,0,0.6,0,0.8,0c3.6,0,7.2-1,10.3-3.1l3.3,3.5c0.3,0.3,0.9,0.3,1.2,0
	l1.6-1.5c0.4-0.3,0.4-0.8,0.1-1.2c0,0,0,0,0,0l-3.1-3.3c3.1-3.3,4.8-7.7,4.7-12.3c0-10.4-7.8-18-18.1-18c-9.7-0.2-17.8,7.4-18,17.1
	C202.7,17.4,202.7,17.7,202.8,18L202.8,18z M220.8,3.9c8,0,13.8,6.1,13.8,14.1c0,3.4-1.1,6.7-3.3,9.3l-4.4-4.7
	c-0.3-0.3-0.8-0.4-1.1-0.1c0,0,0,0,0,0l-1.7,1.6c-0.3,0.3-0.4,0.7-0.2,1.1c0,0,0.1,0.1,0.1,0.1l4.3,4.5c-2.2,1.4-4.8,2.1-7.5,2.1
	c-7.9,0-13.7-6-13.7-14S212.8,3.8,220.8,3.9L220.8,3.9z"/>
</svg>
