<svg xmlns="http://www.w3.org/2000/svg" viewBox="0 0 238.78 36.53"><title>Asset 1</title><path d="M28,16.21c-.64,0-1,.26-1,.83v9.54a12.13,12.13,0,0,1-9,3.84C10.94,30.42,5.89,25,5.89,17.94S10.94,5.46,18.05,5.46c4.35,0,7.74,1.92,10.49,5.5.32.39.64.39,1.09.07l3.2-2.43A.69.69,0,0,0,33,7.51,17.9,17.9,0,0,0,18.05,0C7.81,0,0,7.64,0,17.94s7.81,18,18.05,18a14.52,14.52,0,0,0,9.6-3.45l.51,2.05a1,1,0,0,0,1.09.89h2.81c.58,0,.84-.32.84-1V17c0-.57-.26-.83-.84-.83Z" style="fill:#f4f4f4"/><path d="M72.48.53a1.54,1.54,0,0,0-1.41.89l-6.34,14-4.8,11.84h-.32l-4.35-10L48.09,1.36A1.31,1.31,0,0,0,47,.53h-6a.81.81,0,0,0-.89.89V34.51a.81.81,0,0,0,.89.9h4c.52,0,.77-.32.77-.9V19.21L45.53,9.1h.32L51.29,22,57,34.51a1.42,1.42,0,0,0,1.28.9h2.56a1.43,1.43,0,0,0,1.28-.9L67.87,22,73.12,9.1h.32l-.32,10.11v15.3a.81.81,0,0,0,.89.9h4.1c.57,0,.83-.32.83-.9V1.42c0-.57-.26-.89-.83-.89Z" style="fill:#f4f4f4"/><path d="M103.36,5.44c7.17,0,12.09,5.31,12.09,12.54s-4.92,12.48-12.09,12.48S91.26,25.15,91.26,18,96.19,5.44,103.36,5.44ZM85.37,18a18,18,0,0,0,36,0,18,18,0,0,0-36,0Z" style="fill:#f4f4f4"/><path d="M133.6,6h8.19a11.58,11.58,0,0,1,12,12c0,7-5.06,12-12,12H133.6ZM128.67.53a.81.81,0,0,0-.89.9V34.51a.81.81,0,0,0,.89.9h13.12c10.12,0,18-7.11,18-17.47S151.91.53,141.79.53Z" style="fill:#f4f4f4"/><path d="M167,.53c-.58,0-.84.25-.84.83V34.57c0,.58.26.84.84.84h2.49c.58,0,.9-.26.9-.84V19.15h21.76V34.57c0,.58.32.84.89.84h2.44c.57,0,.89-.26.89-.84V1.36c0-.58-.32-.83-.89-.83H193c-.57,0-.89.25-.89.83v14H170.38V1.36c0-.58-.32-.83-.9-.83Z" style="fill:#f4f4f4"/><path d="M202.75,18a17.55,17.55,0,0,0,18,17.92A18,18,0,0,0,231,32.84l3.32,3.45a.9.9,0,0,0,1.22,0l1.6-1.53a.84.84,0,0,0,.06-1.22l-3.13-3.26A17.91,17.91,0,0,0,238.78,18c0-10.43-7.81-18-18.05-18a17.57,17.57,0,0,0-18,18Zm18-14.15c8,0,13.76,6.15,13.76,14.15a14.5,14.5,0,0,1-3.26,9.34l-4.42-4.67a.81.81,0,0,0-1.15-.06L224,24.2a.78.78,0,0,0-.07,1.21l4.29,4.48A13.8,13.8,0,0,1,220.73,32C212.8,32,207,26,207,18S212.8,3.84,220.73,3.84Z" style="fill:#f4f4f4"/></svg>