<svg width="160" height="25" version="1.1" viewBox="0 0 63.178 9.6647" xmlns="http://www.w3.org/2000/svg">
  <style type="text/css">
  	.st0{fill:#0000000f;}
  </style>
 <g transform="translate(-.58284 -286.97)">
  <g stroke-width=".26458" aria-label="GMODHQ">
   <g stroke-width=".26458">
    <path class="st0" d="m7.9996 291.26c-0.16933 0-0.254 0.0677-0.254 0.22013v2.5231c-0.6604 0.67733-1.4563 1.016-2.3876 1.016-1.8796 0-3.2173-1.4224-3.2173-3.302s1.3377-3.302 3.2173-3.302c1.1515 0 2.0489 0.50801 2.7771 1.4563 0.084667 0.1016 0.16933 0.1016 0.28787 0.0169l0.84667-0.64347c0.1016-0.0847 0.11853-0.16933 0.033867-0.28787-0.89747-1.2869-2.3707-1.9812-3.9455-1.9812-2.7093 0-4.7752 2.0151-4.7752 4.7413 0 2.7601 2.0659 4.7583 4.7752 4.7583 0.93133 0 1.7949-0.28787 2.54-0.9144l0.13547 0.54186c0.033867 0.1524 0.13547 0.23707 0.28787 0.23707h0.74507c0.1524 0 0.22013-0.0847 0.22013-0.254v-4.6059c0-0.1524-0.067733-0.22013-0.22013-0.22013z"/>
    <path class="st0" d="m19.759 287.11c-0.16933 0-0.28787 0.0847-0.37253 0.23706l-1.6764 3.6915-1.27 3.1327h-0.08467l-1.1515-2.6585-1.8965-4.1825c-0.0508-0.11853-0.16933-0.22013-0.28787-0.22013h-1.5748c-0.1524 0-0.23707 0.0847-0.23707 0.23706v8.7545c0 0.1524 0.08467 0.23707 0.23707 0.23707h1.0668c0.13547 0 0.2032-0.0847 0.2032-0.23707v-4.0471l-0.08467-2.6755h0.08467l1.4393 3.4205 1.5071 3.302c0.08467 0.1524 0.18627 0.23707 0.33867 0.23707h0.67733c0.1524 0 0.254-0.0847 0.33867-0.23707l1.524-3.3189 1.3885-3.4036h0.08467l-0.08467 2.6755v4.0471c0 0.1524 0.08467 0.23707 0.23707 0.23707h1.0837c0.1524 0 0.22013-0.0847 0.22013-0.23707v-8.7545c0-0.1524-0.06773-0.23706-0.22013-0.23706z"/>
    <path class="st0" d="m27.93 288.41c1.8965 0 3.2004 1.4055 3.2004 3.3189 0 1.8965-1.3039 3.302-3.2004 3.302s-3.2004-1.4055-3.2004-3.302c0-1.9135 1.3039-3.3189 3.2004-3.3189zm-4.7583 3.3189c0 2.7432 2.0828 4.7413 4.7583 4.7413s4.7583-1.9981 4.7583-4.7413c0-2.7601-2.0828-4.7583-4.7583-4.7583s-4.7583 1.9981-4.7583 4.7583z"/>
    <path class="st0" d="m35.932 288.55h2.1675c1.8457 0 3.1835 1.3208 3.1835 3.1665 0 1.8627-1.3377 3.1665-3.1835 3.1665h-2.1675zm-1.3039-1.4393c-0.1524 0-0.23707 0.0847-0.23707 0.23706v8.7545c0 0.1524 0.08467 0.23707 0.23707 0.23707h3.4713c2.6755 0 4.7583-1.8796 4.7583-4.6228 0-2.7093-2.0828-4.6059-4.7583-4.6059z"/>
   </g>
   <path class="st0" d="m44.765 287.11c-0.1524 0-0.22013 0.0677-0.22013 0.22013v8.7884c0 0.1524 0.06773 0.22013 0.22013 0.22013h0.6604c0.1524 0 0.23707-0.0677 0.23707-0.22013v-4.0809h5.7573v4.0809c0 0.1524 0.08467 0.22013 0.23707 0.22013h0.64347c0.1524 0 0.23707-0.0677 0.23707-0.22013v-8.7884c0-0.1524-0.08467-0.22013-0.23707-0.22013h-0.64347c-0.1524 0-0.23707 0.0677-0.23707 0.22013v3.6915h-5.7573v-3.6915c0-0.1524-0.08467-0.22013-0.23707-0.22013z"/>
   <path class="st0" d="m54.227 291.73c0 2.7432 2.0828 4.7413 4.7583 4.7413 1.0329 0 1.9643-0.28787 2.7263-0.8128l0.88053 0.9144c0.08467 0.0847 0.23707 0.0847 0.32173 0l0.42333-0.4064c0.1016-0.1016 0.1016-0.2032 0.01693-0.32174l-0.82973-0.8636c0.762-0.82973 1.2361-1.9473 1.2361-3.2512 0-2.7601-2.0659-4.7583-4.7752-4.7583-2.6755 0-4.7583 1.9981-4.7583 4.7583zm4.7583-3.7423c2.1167 0 3.6407 1.6256 3.6407 3.7423 0 0.9652-0.32173 1.8119-0.8636 2.4723l-1.1684-1.2361c-0.08467-0.0847-0.22013-0.1016-0.3048-0.0169l-0.44027 0.42334c-0.11853 0.0847-0.1016 0.23706-0.01693 0.32173l1.1345 1.1853c-0.5588 0.3556-1.2361 0.5588-1.9812 0.5588-2.0997 0-3.6237-1.5917-3.6237-3.7084s1.524-3.7423 3.6237-3.7423z"/>
  </g>
 </g>
</svg>
